# xmcd
#
# Track frame offsets: 
#        183
#        15293
#        39788
#        61430
#        75978
#        94025
#        109913
#        129035
#        145563
#        158540
#
# Disc length: 2457 seconds
#
# Revision: 2
# Processed by: cddbd v1.5.2PL0 Copyright (c) Steve Scherf et al.
# Submitted via: ExactAudioCopy v0.95b4
#
DISCID=6009970a
DTITLE=Otis Rush - Right Place, Wrong Time
DYEAR=1976
DGENRE=Blues
TTITLE0=Tore Up
TTITLE1=Right Place, Wrong Time
TTITLE2=Easy Go
TTITLE3=Three Times A Fool
TTITLE4=Rainy Night in Georgia
TTITLE5=Natural Ball
TTITLE6=I Wonder Why
TTITLE7=Your Turn To Cry
TTITLE8=Lonely Man
TTITLE9=Take A Look Behind
EXTD=
EXTT0=
EXTT1=
EXTT2=
EXTT3=
EXTT4=
EXTT5=
EXTT6=
EXTT7=
EXTT8=
EXTT9=
PLAYORDER=
